<svg xmlns="http://www.w3.org/2000/svg" xmlns:svgjs="http://svgjs.dev/svgjs" xmlns:xlink="http://www.w3.org/1999/xlink" version="1.1" viewBox="0 0 800 800"><defs><linearGradient id="cccoil-grad" x1="50%" x2="50%" y1="0%" y2="100%"><stop offset="0%" stop-color="hsl(230, 55%, 50%)" stop-opacity="1"/><stop offset="100%" stop-color="hsl(230, 55%, 70%)" stop-opacity="1"/></linearGradient></defs><g fill="none" stroke="url(#cccoil-grad)" stroke-linecap="round"><circle cx="400" cy="400" r="263.5" stroke-dasharray="1407 1656" stroke-dashoffset="527" stroke-width="14.5" opacity=".05"/><circle cx="400" cy="400" r="248" stroke-dasharray="1242 1558" stroke-dashoffset="527" stroke-width="14.5" opacity=".11" transform="rotate(23, 400, 400)"/><circle cx="400" cy="400" r="232.5" stroke-dasharray="1087 1461" stroke-dashoffset="527" stroke-width="14.5" opacity=".17" transform="rotate(45, 400, 400)"/><circle cx="400" cy="400" r="217" stroke-dasharray="942 1363" stroke-dashoffset="527" stroke-width="14.5" opacity=".23" transform="rotate(68, 400, 400)"/><circle cx="400" cy="400" r="201.5" stroke-dasharray="807 1266" stroke-dashoffset="527" stroke-width="14.5" opacity=".29" transform="rotate(90, 400, 400)"/><circle cx="400" cy="400" r="186" stroke-dasharray="683 1169" stroke-dashoffset="527" stroke-width="14.5" opacity=".35" transform="rotate(113, 400, 400)"/><circle cx="400" cy="400" r="170.5" stroke-dasharray="569 1071" stroke-dashoffset="527" stroke-width="14.5" opacity=".41" transform="rotate(135, 400, 400)"/><circle cx="400" cy="400" r="155" stroke-dasharray="466 974" stroke-dashoffset="527" stroke-width="14.5" opacity=".47" transform="rotate(158, 400, 400)"/><circle cx="400" cy="400" r="139.5" stroke-dasharray="373 877" stroke-dashoffset="527" stroke-width="14.5" opacity=".53" transform="rotate(180, 400, 400)"/><circle cx="400" cy="400" r="124" stroke-dasharray="290 779" stroke-dashoffset="527" stroke-width="14.5" opacity=".58" transform="rotate(203, 400, 400)"/><circle cx="400" cy="400" r="108.5" stroke-dasharray="217 682" stroke-dashoffset="527" stroke-width="14.5" opacity=".64" transform="rotate(225, 400, 400)"/><circle cx="400" cy="400" r="93" stroke-dasharray="155 584" stroke-dashoffset="527" stroke-width="14.5" opacity=".7" transform="rotate(248, 400, 400)"/><circle cx="400" cy="400" r="77.5" stroke-dasharray="103 487" stroke-dashoffset="527" stroke-width="14.5" opacity=".76" transform="rotate(270, 400, 400)"/><circle cx="400" cy="400" r="62" stroke-dasharray="62 390" stroke-dashoffset="527" stroke-width="14.5" opacity=".82" transform="rotate(293, 400, 400)"/><circle cx="400" cy="400" r="46.5" stroke-dasharray="31 292" stroke-dashoffset="527" stroke-width="14.5" opacity=".88" transform="rotate(315, 400, 400)"/><circle cx="400" cy="400" r="31" stroke-dasharray="10 195" stroke-dashoffset="527" stroke-width="14.5" opacity=".94" transform="rotate(338, 400, 400)"/><circle cx="400" cy="400" r="15.5" stroke-dasharray="0 97" stroke-dashoffset="527" stroke-width="14.5" opacity="1" transform="rotate(360, 400, 400)"/></g></svg>