<svg xmlns="http://www.w3.org/2000/svg" version="1.1" xmlns:xlink="http://www.w3.org/1999/xlink" xmlns:svgjs="http://svgjs.dev/svgjs" viewBox="0 0 800 800"><defs><linearGradient x1="50%" y1="0%" x2="50%" y2="100%" id="cccoil-grad"><stop stop-color="hsl(230, 55%, 50%)" stop-opacity="1" offset="0%"></stop><stop stop-color="hsl(230, 55%, 70%)" stop-opacity="1" offset="100%"></stop></linearGradient></defs><g stroke="url(#cccoil-grad)" fill="none" stroke-linecap="round"><circle r="263.5" cx="400" cy="400" stroke-width="14.5" stroke-dasharray="1407 1656" stroke-dashoffset="527" opacity="0.05"></circle><circle r="248" cx="400" cy="400" stroke-width="14.5" stroke-dasharray="1242 1558" transform="rotate(23, 400, 400)" stroke-dashoffset="527" opacity="0.11"></circle><circle r="232.5" cx="400" cy="400" stroke-width="14.5" stroke-dasharray="1087 1461" transform="rotate(45, 400, 400)" stroke-dashoffset="527" opacity="0.17"></circle><circle r="217" cx="400" cy="400" stroke-width="14.5" stroke-dasharray="942 1363" transform="rotate(68, 400, 400)" stroke-dashoffset="527" opacity="0.23"></circle><circle r="201.5" cx="400" cy="400" stroke-width="14.5" stroke-dasharray="807 1266" transform="rotate(90, 400, 400)" stroke-dashoffset="527" opacity="0.29"></circle><circle r="186" cx="400" cy="400" stroke-width="14.5" stroke-dasharray="683 1169" transform="rotate(113, 400, 400)" stroke-dashoffset="527" opacity="0.35"></circle><circle r="170.5" cx="400" cy="400" stroke-width="14.5" stroke-dasharray="569 1071" transform="rotate(135, 400, 400)" stroke-dashoffset="527" opacity="0.41"></circle><circle r="155" cx="400" cy="400" stroke-width="14.5" stroke-dasharray="466 974" transform="rotate(158, 400, 400)" stroke-dashoffset="527" opacity="0.47"></circle><circle r="139.5" cx="400" cy="400" stroke-width="14.5" stroke-dasharray="373 877" transform="rotate(180, 400, 400)" stroke-dashoffset="527" opacity="0.53"></circle><circle r="124" cx="400" cy="400" stroke-width="14.5" stroke-dasharray="290 779" transform="rotate(203, 400, 400)" stroke-dashoffset="527" opacity="0.58"></circle><circle r="108.5" cx="400" cy="400" stroke-width="14.5" stroke-dasharray="217 682" transform="rotate(225, 400, 400)" stroke-dashoffset="527" opacity="0.64"></circle><circle r="93" cx="400" cy="400" stroke-width="14.5" stroke-dasharray="155 584" transform="rotate(248, 400, 400)" stroke-dashoffset="527" opacity="0.70"></circle><circle r="77.5" cx="400" cy="400" stroke-width="14.5" stroke-dasharray="103 487" transform="rotate(270, 400, 400)" stroke-dashoffset="527" opacity="0.76"></circle><circle r="62" cx="400" cy="400" stroke-width="14.5" stroke-dasharray="62 390" transform="rotate(293, 400, 400)" stroke-dashoffset="527" opacity="0.82"></circle><circle r="46.5" cx="400" cy="400" stroke-width="14.5" stroke-dasharray="31 292" transform="rotate(315, 400, 400)" stroke-dashoffset="527" opacity="0.88"></circle><circle r="31" cx="400" cy="400" stroke-width="14.5" stroke-dasharray="10 195" transform="rotate(338, 400, 400)" stroke-dashoffset="527" opacity="0.94"></circle><circle r="15.5" cx="400" cy="400" stroke-width="14.5" stroke-dasharray="0 97" transform="rotate(360, 400, 400)" stroke-dashoffset="527" opacity="1.00"></circle></g></svg>